<svg width="36" height="36" viewBox="0 0 36 36" fill="none" xmlns="http://www.w3.org/2000/svg">
<path d="M0 17.561H10.5366V33C10.5366 34.6569 9.19344 36 7.53658 36H3C1.34314 36 0 34.6569 0 33V17.561Z" fill="#868686"/>
<path d="M26.2703 18H36V33C36 34.6569 34.6568 36 33 36H29.2703C27.6134 36 26.2703 34.6569 26.2703 33V18Z" fill="#A4A4A4"/>
<path d="M7.68483 10.037C8.85641 8.86541 10.7559 8.86541 11.9275 10.037L15.5324 13.6419C16.704 14.8135 16.704 16.713 15.5324 17.8846L7.84786 25.5691L0.000270109 17.7215L7.68483 10.037Z" fill="#868686"/>
<path d="M12.9292 9.48578C11.7576 8.3142 11.7576 6.41471 12.9292 5.24314L16.051 2.12133C17.2226 0.949752 19.1221 0.949754 20.2936 2.12133L35.8867 17.7144L28.5222 25.0788L12.9292 9.48578Z" fill="#A4A4A4"/>
<path d="M23.8379 5.83784H29.1082C30.765 5.83784 32.1082 7.18099 32.1082 8.83784V15.0811H23.8379V5.83784Z" fill="#A4A4A4"/>
</svg>
